<?xml version="1.0" standalone="no"?><!DOCTYPE svg PUBLIC "-//W3C//DTD SVG 1.1//EN" "http://www.w3.org/Graphics/SVG/1.1/DTD/svg11.dtd"><svg xmlns="http://www.w3.org/2000/svg" viewBox="0 0 650 400" version="1.1"><clipPath id="box"><rect x="0" y="0" width="650" height="400" style="fill:none;stroke:none;" /></clipPath><g clip-path="url(#box)"><rect x="0.00" y="0.00" width="650.00" height="400.00" style="fill:#FFFFFF;stroke:none;" /><path d="M536.77 189.64 L536.77 189.64 L536.74 187.76 L536.63 185.89 L536.44 184.04 L536.19 182.19 L535.86 180.37 L535.47 178.58 L535.01 176.82 L534.49 175.09 L533.90 173.41 L533.27 171.77 L532.57 170.18 L531.84 168.64 L531.05 167.16 L530.23 165.74 L529.37 164.38 L528.48 163.08 L527.57 161.85 L526.64 160.69 L525.70 159.59 L524.75 158.57 L523.80 157.61 L522.85 156.71 L521.91 155.89 L520.98 155.12 L520.07 154.43 L519.19 153.79 L518.33 153.21 L517.51 152.68 L516.72 152.21 L515.98 151.79 L515.28 151.41 L514.63 151.07 L514.03 150.76 L513.49 150.48 L513.00 150.23 L512.57 150.00 L512.20 149.79 L511.89 149.58 L511.64 149.38 L511.45 149.18 L511.32 148.97 L511.25 148.75 L511.24 148.51 L511.28 148.25 L511.38 147.96 L511.53 147.64 L511.73 147.28 L511.97 146.88 L512.26 146.43 L512.58 145.94 L512.93 145.39 L513.32 144.79 L513.73 144.13 L514.15 143.41 L514.59 142.63 L515.04 141.79 L515.49 140.88 L515.94 139.91 L516.39 138.87 L516.81 137.77 L517.22 136.60 L517.61 135.37 L517.96 134.08 L518.29 132.74 L518.57 131.33 L518.81 129.88 L519.00 128.37 L519.14 126.82 L519.22 125.23 L519.24 123.60 L519.20 121.93 L519.09 120.24 L518.92 118.53 L518.68 116.79 L518.36 115.04 L517.98 113.29 L517.52 111.53 L516.99 109.78 L516.38 108.04 L515.70 106.31 L514.96 104.60 L514.14 102.92 L513.25 101.26 L512.31 99.64 L511.30 98.06 L510.23 96.53 L509.10 95.05 L507.92 93.61 L506.70 92.24 L505.44 90.92 L504.13 89.67 L502.80 88.48 L501.43 87.35 L500.04 86.30 L498.64 85.32 L497.22 84.40 L495.80 83.56 L494.38 82.79 L492.96 82.09 L491.55 81.45 L490.16 80.89 L488.79 80.39 L487.44 79.95 L486.12 79.58 L484.84 79.26 L483.60 79.00 L482.40 78.79 L481.25 78.62 L480.14 78.50 L479.10 78.41 L478.10 78.36 L477.17 78.34 L476.29 78.34 L475.47 78.35 L474.72 78.38 L474.03 78.41 L473.40 78.45 L472.83 78.48 L472.32 78.50 L471.88 78.50 L471.49 78.49 L471.15 78.45 L470.87 78.38 L470.64 78.27 L470.45 78.13 L470.31 77.94 L470.20 77.71 L470.14 77.43 L470.10 77.09 L470.08 76.70 L470.09 76.25 L470.11 75.74 L470.14 75.18 L470.17 74.55 L470.20 73.85 L470.23 73.10 L470.25 72.28 L470.24 71.41 L470.22 70.47 L470.17 69.48 L470.08 68.43 L469.96 67.32 L469.79 66.17 L469.58 64.97 L469.32 63.73 L469.00 62.45 L468.62 61.13 L468.19 59.78 L467.69 58.41 L467.12 57.02 L466.49 55.61 L465.79 54.19 L465.02 52.76 L464.17 51.34 L463.26 49.93 L462.27 48.52 L461.22 47.13 L460.09 45.77 L458.90 44.43 L457.65 43.13 L456.33 41.87 L454.96 40.64 L453.52 39.47 L452.04 38.34 L450.50 37.27 L448.92 36.26 L447.31 35.32 L445.65 34.43 L443.97 33.62 L442.26 32.87 L440.53 32.19 L438.78 31.59 L437.03 31.06 L435.28 30.60 L433.52 30.21 L431.77 29.90 L430.04 29.66 L428.33 29.48 L426.63 29.38 L424.97 29.34 L423.34 29.36 L421.75 29.44 L420.20 29.58 L418.69 29.77 L417.24 30.01 L415.83 30.30 L414.49 30.62 L413.20 30.97 L411.97 31.36 L410.81 31.77 L409.70 32.20 L408.67 32.64 L407.69 33.09 L406.79 33.54 L405.94 33.99 L405.16 34.43 L404.44 34.85 L403.78 35.26 L403.18 35.65 L402.64 36.00 L402.15 36.32 L401.70 36.61 L401.30 36.85 L400.94 37.05 L400.62 37.20 L400.33 37.29 L400.07 37.34 L399.83 37.33 L399.61 37.26 L399.40 37.13 L399.20 36.94 L399.00 36.69 L398.79 36.37 L398.58 36.00 L398.35 35.57 L398.10 35.08 L397.82 34.54 L397.52 33.94 L397.17 33.29 L396.79 32.59 L396.37 31.85 L395.90 31.06 L395.37 30.24 L394.79 29.38 L394.15 28.50 L393.45 27.59 L392.69 26.66 L391.86 25.72 L390.97 24.77 L390.01 23.81 L388.98 22.86 L387.88 21.92 L386.72 20.99 L385.49 20.08 L384.19 19.19 L382.83 18.34 L381.41 17.52 L379.93 16.73 L378.39 15.99 L376.80 15.30 L375.16 14.66 L373.48 14.08 L371.75 13.56 L369.99 13.10 L368.19 12.71 L366.37 12.38 L364.53 12.13 L362.67 11.95 L360.80 11.84 L358.93 11.80 L357.05 11.84 L355.18 11.95 L353.32 12.13 L351.48 12.39 L349.66 12.72 L347.87 13.11 L346.10 13.57 L344.38 14.09 L342.69 14.67 L341.06 15.31 L339.47 16.01 L337.93 16.75 L336.45 17.53 L335.03 18.35 L333.67 19.21 L332.38 20.10 L331.15 21.01 L329.98 21.94 L328.89 22.88 L327.86 23.83 L326.90 24.78 L326.01 25.73 L325.18 26.68 L324.42 27.60 L323.72 28.51 L323.09 29.40 L322.51 30.25 L321.98 31.07 L321.51 31.86 L321.09 32.60 L320.71 33.30 L320.37 33.95 L320.06 34.55 L319.79 35.09 L319.54 35.58 L319.31 36.01 L319.09 36.38 L318.89 36.69 L318.69 36.94 L318.48 37.12 L318.27 37.25 L318.05 37.32 L317.81 37.33 L317.55 37.29 L317.26 37.19 L316.94 37.04 L316.58 36.84 L316.18 36.60 L315.73 36.31 L315.24 35.99 L314.69 35.63 L314.09 35.25 L313.43 34.84 L312.71 34.41 L311.93 33.97 L311.08 33.52 L310.18 33.07 L309.20 32.62 L308.16 32.18 L307.06 31.75 L305.89 31.34 L304.66 30.96 L303.37 30.60 L302.03 30.28 L300.62 30.00 L299.17 29.76 L297.66 29.57 L296.11 29.43 L294.52 29.35 L292.89 29.33 L291.22 29.37 L289.53 29.48 L287.81 29.65 L286.08 29.89 L284.33 30.21 L282.58 30.60 L280.82 31.06 L279.07 31.59 L277.32 32.19 L275.60 32.87 L273.89 33.62 L272.20 34.44 L270.55 35.32 L268.93 36.27 L267.35 37.28 L265.82 38.35 L264.33 39.48 L262.90 40.66 L261.53 41.88 L260.21 43.15 L258.96 44.45 L257.77 45.79 L256.65 47.15 L255.59 48.54 L254.61 49.94 L253.70 51.36 L252.85 52.78 L252.08 54.20 L251.38 55.62 L250.75 57.03 L250.19 58.42 L249.69 59.80 L249.25 61.14 L248.88 62.46 L248.56 63.74 L248.30 64.98 L248.09 66.18 L247.92 67.33 L247.80 68.43 L247.72 69.48 L247.66 70.48 L247.64 71.41 L247.64 72.29 L247.65 73.10 L247.68 73.85 L247.71 74.54 L247.75 75.17 L247.78 75.74 L247.80 76.25 L247.80 76.69 L247.79 77.08 L247.75 77.42 L247.68 77.70 L247.57 77.93 L247.43 78.12 L247.24 78.26 L247.01 78.36 L246.73 78.43 L246.39 78.47 L246.00 78.49 L245.55 78.48 L245.04 78.46 L244.47 78.43 L243.84 78.39 L243.15 78.36 L242.39 78.33 L241.58 78.32 L240.70 78.32 L239.76 78.35 L238.77 78.40 L237.72 78.49 L236.61 78.61 L235.46 78.78 L234.26 78.99 L233.02 79.25 L231.73 79.57 L230.42 79.94 L229.07 80.38 L227.70 80.88 L226.30 81.45 L224.89 82.08 L223.47 82.78 L222.05 83.56 L220.63 84.40 L219.21 85.32 L217.81 86.30 L216.42 87.36 L215.06 88.48 L213.72 89.67 L212.42 90.93 L211.15 92.25 L209.93 93.62 L208.76 95.06 L207.63 96.54 L206.56 98.08 L205.55 99.66 L204.61 101.28 L203.72 102.93 L202.91 104.62 L202.16 106.32 L201.49 108.05 L200.88 109.80 L200.35 111.55 L199.89 113.31 L199.51 115.06 L199.20 116.81 L198.95 118.54 L198.78 120.26 L198.68 121.95 L198.64 123.61 L198.66 125.24 L198.74 126.83 L198.88 128.38 L199.07 129.89 L199.31 131.34 L199.60 132.74 L199.92 134.09 L200.28 135.38 L200.66 136.60 L201.07 137.77 L201.50 138.87 L201.94 139.91 L202.39 140.88 L202.84 141.79 L203.29 142.63 L203.73 143.41 L204.16 144.13 L204.56 144.79 L204.95 145.39 L205.30 145.93 L205.62 146.42 L205.91 146.87 L206.15 147.27 L206.35 147.62 L206.50 147.94 L206.59 148.23 L206.64 148.49 L206.62 148.73 L206.55 148.95 L206.42 149.16 L206.23 149.37 L205.98 149.57 L205.67 149.77 L205.30 149.99 L204.86 150.22 L204.38 150.47 L203.83 150.74 L203.23 151.05 L202.58 151.39 L201.88 151.77 L201.14 152.20 L200.35 152.67 L199.53 153.20 L198.67 153.78 L197.78 154.42 L196.87 155.12 L195.95 155.88 L195.00 156.71 L194.05 157.60 L193.10 158.56 L192.15 159.59 L191.21 160.69 L190.28 161.86 L189.37 163.09 L188.48 164.39 L187.63 165.75 L186.80 167.17 L186.02 168.65 L185.28 170.19 L184.59 171.78 L183.95 173.42 L183.37 175.10 L182.85 176.83 L182.39 178.59 L182.00 180.39 L181.68 182.21 L181.42 184.05 L181.24 185.91 L181.13 187.78 L181.10 189.66 L181.13 191.53 L181.25 193.40 L181.43 195.26 L181.69 197.10 L182.01 198.92 L182.41 200.72 L182.87 202.48 L183.39 204.20 L183.97 205.89 L184.61 207.52 L185.31 209.11 L186.05 210.65 L186.83 212.13 L187.65 213.55 L188.51 214.91 L189.40 216.20 L190.31 217.43 L191.24 218.59 L192.18 219.69 L193.13 220.71 L194.09 221.67 L195.04 222.56 L195.98 223.39 L196.90 224.15 L197.81 224.85 L198.70 225.48 L199.55 226.06 L200.37 226.58 L201.16 227.06 L201.90 227.48 L202.60 227.86 L203.25 228.20 L203.84 228.51 L204.39 228.78 L204.87 229.03 L205.30 229.26 L205.67 229.47 L205.98 229.68 L206.23 229.88 L206.42 230.08 L206.55 230.29 L206.61 230.52 L206.62 230.75 L206.58 231.02 L206.48 231.31 L206.33 231.63 L206.13 231.99 L205.88 232.39 L205.60 232.83 L205.28 233.33 L204.92 233.88 L204.53 234.48 L204.13 235.14 L203.70 235.86 L203.26 236.64 L202.81 237.49 L202.36 238.40 L201.91 239.37 L201.47 240.41 L201.04 241.52 L200.63 242.68 L200.25 243.91 L199.89 245.20 L199.57 246.55 L199.29 247.95 L199.05 249.41 L198.86 250.92 L198.72 252.47 L198.64 254.06 L198.62 255.70 L198.66 257.36 L198.77 259.05 L198.94 260.77 L199.19 262.50 L199.50 264.25 L199.89 266.00 L200.35 267.76 L200.88 269.51 L201.49 271.26 L202.17 272.99 L202.92 274.70 L203.74 276.38 L204.62 278.03 L205.57 279.65 L206.58 281.23 L207.65 282.76 L208.78 284.24 L209.96 285.68 L211.18 287.05 L212.45 288.37 L213.75 289.62 L215.09 290.81 L216.45 291.93 L217.84 292.98 L219.25 293.97 L220.66 294.88 L222.08 295.72 L223.51 296.49 L224.93 297.19 L226.33 297.82 L227.73 298.38 L229.10 298.88 L230.44 299.32 L231.76 299.69 L233.04 300.01 L234.28 300.27 L235.48 300.48 L236.63 300.64 L237.73 300.76 L238.78 300.85 L239.77 300.90 L240.71 300.93 L241.58 300.93 L242.40 300.91 L243.15 300.89 L243.84 300.85 L244.47 300.82 L245.03 300.79 L245.54 300.77 L245.99 300.76 L246.37 300.78 L246.71 300.82 L246.99 300.89 L247.22 301.00 L247.40 301.14 L247.55 301.33 L247.65 301.56 L247.72 301.84 L247.76 302.18 L247.77 302.57 L247.77 303.02 L247.75 303.53 L247.72 304.10 L247.68 304.73 L247.65 305.43 L247.62 306.18 L247.61 307.00 L247.61 307.88 L247.63 308.82 L247.69 309.81 L247.77 310.86 L247.90 311.97 L248.06 313.12 L248.28 314.32 L248.54 315.56 L248.86 316.85 L249.24 318.17 L249.67 319.51 L250.17 320.89 L250.74 322.28 L251.37 323.69 L252.08 325.11 L252.85 326.53 L253.70 327.95 L254.61 329.37 L255.60 330.77 L256.65 332.16 L257.78 333.52 L258.97 334.86 L260.23 336.16 L261.55 337.43 L262.92 338.65 L264.36 339.82 L265.84 340.95 L267.38 342.02 L268.96 343.02 L270.58 343.97 L272.23 344.85 L273.92 345.67 L275.63 346.42 L277.36 347.09 L279.10 347.69 L280.85 348.22 L282.61 348.68 L284.36 349.06 L286.11 349.38 L287.84 349.62 L289.56 349.79 L291.25 349.89 L292.91 349.93 L294.54 349.91 L296.13 349.82 L297.68 349.68 L299.19 349.49 L300.64 349.25 L302.04 348.97 L303.39 348.65 L304.68 348.29 L305.90 347.90 L307.07 347.49 L308.17 347.07 L309.20 346.62 L310.17 346.17 L311.08 345.72 L311.92 345.28 L312.70 344.84 L313.42 344.41 L314.08 344.00 L314.68 343.62 L315.22 343.27 L315.71 342.94 L316.16 342.66 L316.55 342.42 L316.91 342.22 L317.23 342.07 L317.52 341.98 L317.78 341.93 L318.02 341.95 L318.24 342.02 L318.45 342.15 L318.65 342.34 L318.85 342.59 L319.06 342.91 L319.27 343.28 L319.50 343.71 L319.76 344.20 L320.03 344.75 L320.34 345.35 L320.68 346.00 L321.06 346.70 L321.49 347.44 L321.96 348.23 L322.49 349.05 L323.07 349.91 L323.71 350.80 L324.41 351.71 L325.17 352.64 L326.00 353.58 L326.90 354.53 L327.86 355.48 L328.89 356.43 L329.99 357.37 L331.15 358.30 L332.38 359.21 L333.68 360.10 L335.04 360.96 L336.47 361.78 L337.95 362.56 L339.49 363.30 L341.08 363.99 L342.72 364.63 L344.40 365.21 L346.13 365.73 L347.89 366.19 L349.69 366.58 L351.51 366.90 L353.35 367.15 L355.21 367.33 L357.08 367.44 L358.96 367.48 L360.83 367.44 L362.70 367.33 L364.56 367.14 L366.40 366.88 L368.22 366.56 L370.02 366.16 L371.78 365.70 L373.50 365.18 L375.19 364.59 L376.82 363.95 L378.41 363.26 L379.95 362.52 L381.43 361.74 L382.85 360.91 L384.20 360.05 L385.50 359.17 L386.72 358.25 L387.89 357.33 L388.98 356.38 L390.01 355.43 L390.96 354.48 L391.86 353.53 L392.68 352.59 L393.44 351.66 L394.14 350.75 L394.77 349.87 L395.35 349.01 L395.87 348.19 L396.35 347.41 L396.77 346.67 L397.15 345.97 L397.49 345.32 L397.79 344.73 L398.07 344.18 L398.32 343.70 L398.55 343.27 L398.76 342.90 L398.97 342.59 L399.17 342.34 L399.37 342.16 L399.58 342.03 L399.80 341.96 L400.04 341.95 L400.30 342.00 L400.59 342.10 L400.92 342.25 L401.28 342.45 L401.68 342.70 L402.12 342.98 L402.62 343.30 L403.17 343.66 L403.77 344.05 L404.43 344.46 L405.15 344.88 L405.94 345.32 L406.78 345.77 L407.69 346.22 L408.67 346.67 L409.71 347.11 L410.81 347.54 L411.98 347.95 L413.21 348.34 L414.50 348.69 L415.85 349.01 L417.25 349.29 L418.71 349.53 L420.22 349.72 L421.77 349.86 L423.37 349.94 L425.00 349.96 L426.66 349.92 L428.36 349.81 L430.07 349.63 L431.81 349.39 L433.55 349.07 L435.31 348.68 L437.06 348.22 L438.82 347.69 L440.56 347.08 L442.29 346.40 L444.00 345.65 L445.68 344.83 L447.33 343.95 L448.95 343.00 L450.53 341.99 L452.06 340.91 L453.55 339.79 L454.98 338.61 L456.35 337.39 L457.67 336.12 L458.92 334.82 L460.11 333.48 L461.23 332.11 L462.28 330.73 L463.26 329.32 L464.17 327.90 L465.01 326.48 L465.78 325.06 L466.48 323.64 L467.11 322.23 L467.68 320.84 L468.17 319.47 L468.61 318.12 L468.98 316.81 L469.30 315.53 L469.56 314.29 L469.77 313.09 L469.93 311.94 L470.05 310.84 L470.14 309.79 L470.19 308.80 L470.21 307.86 L470.21 306.99 L470.20 306.18 L470.17 305.43 L470.14 304.74 L470.10 304.11 L470.07 303.54 L470.05 303.04 L470.05 302.59 L470.07 302.20 L470.11 301.87 L470.18 301.59 L470.28 301.36 L470.43 301.17 L470.62 301.03 L470.85 300.93 L471.14 300.86 L471.47 300.82 L471.86 300.81 L472.32 300.81 L472.82 300.84 L473.40 300.87 L474.03 300.90 L474.72 300.93 L475.48 300.96 L476.30 300.98 L477.17 300.97 L478.11 300.95 L479.11 300.89 L480.16 300.81 L481.27 300.68 L482.42 300.52 L483.62 300.30 L484.87 300.04 L486.15 299.72 L487.47 299.34 L488.81 298.91 L490.19 298.40 L491.58 297.84 L492.99 297.20 L494.41 296.50 L495.83 295.72 L497.26 294.88 L498.67 293.96 L500.08 292.97 L501.46 291.92 L502.83 290.79 L504.16 289.60 L505.46 288.34 L506.73 287.02 L507.95 285.65 L509.12 284.21 L510.25 282.72 L511.32 281.19 L512.32 279.61 L513.27 277.99 L514.15 276.33 L514.97 274.65 L515.71 272.94 L516.39 271.21 L516.99 269.46 L517.52 267.71 L517.97 265.96 L518.36 264.20 L518.67 262.46 L518.91 260.72 L519.08 259.01 L519.18 257.32 L519.22 255.65 L519.20 254.02 L519.11 252.43 L518.97 250.88 L518.78 249.38 L518.54 247.93 L518.26 246.53 L517.93 245.18 L517.58 243.90 L517.19 242.67 L516.78 241.51 L516.35 240.41 L515.91 239.37 L515.46 238.40 L515.01 237.50 L514.56 236.65 L514.12 235.87 L513.70 235.16 L513.29 234.50 L512.91 233.90 L512.55 233.36 L512.23 232.87 L511.95 232.42 L511.71 232.03 L511.51 231.67 L511.36 231.35 L511.27 231.06 L511.23 230.80 L511.24 230.56 L511.31 230.34 L511.44 230.13 L511.64 229.93 L511.89 229.73 L512.20 229.52 L512.58 229.31 L513.01 229.08 L513.50 228.83 L514.05 228.55 L514.65 228.24 L515.30 227.90 L516.00 227.52 L516.74 227.09 L517.53 226.62 L518.36 226.09 L519.21 225.51 L520.10 224.87 L521.01 224.17 L521.94 223.40 L522.88 222.57 L523.83 221.68 L524.78 220.72 L525.73 219.68 L526.68 218.59 L527.61 217.42 L528.52 216.19 L529.40 214.89 L530.26 213.53 L531.08 212.10 L531.86 210.62 L532.60 209.08 L533.29 207.49 L533.93 205.85 L534.51 204.16 L535.03 202.44 L535.48 200.67 L535.88 198.88 L536.20 197.06 L536.45 195.21 L536.63 193.35 L536.74 191.48 L536.77 189.61 " style="fill:none;stroke:#ff0000;stroke-width:1;" /></g></svg>